<svg width="100" height="100" viewBox="0 0 100 100" fill="none" xmlns="http://www.w3.org/2000/svg">
<path d="M0 10C0 4.47716 4.47715 0 10 0H90C95.5228 0 100 4.47715 100 10V90C100 95.5228 95.5228 100 90 100H10C4.47716 100 0 95.5228 0 90V10Z" fill="#298459"/>
<path fill-rule="evenodd" clip-rule="evenodd" d="M78.3333 50.5C78.3333 66.3782 65.6481 79.25 50 79.25C43.7437 79.25 37.961 77.1924 33.2732 73.7078L22.6582 84.4085C22.2827 84.7871 21.7715 85 21.2383 85H19C17.3431 85 16 83.6569 16 82V79.2485C16 78.7231 16.2067 78.2188 16.5755 77.8446L26.9891 67.2779C23.6396 62.5562 21.6667 56.7619 21.6667 50.5C21.6667 34.6218 34.3519 21.75 50 21.75C56.1712 21.75 61.8815 23.7519 66.5347 27.1507L76.6426 16.8942C77.2064 16.3221 77.9761 16 78.7793 16H82C83.1046 16 84 16.8954 84 18V21.3358C84 22.1273 83.6872 22.8867 83.1298 23.4486L72.9807 33.6797C76.3486 38.409 78.3333 44.2193 78.3333 50.5ZM50 69.6667C60.432 69.6667 68.8889 61.0855 68.8889 50.5C68.8889 46.8612 67.8896 43.4593 66.1542 40.5613L40.0997 66.8262C42.9785 68.6274 46.3696 69.6667 50 69.6667ZM50 31.3333C39.568 31.3333 31.1111 39.9145 31.1111 50.5C31.1111 54.108 32.0936 57.4831 33.8018 60.3649L59.722 34.0636C56.8819 32.3302 53.5557 31.3333 50 31.3333Z" fill="white" stroke="white"/>
</svg>
